# xmcd CD database file generated by Grip 3.3.0
# 
# Track frame offsets:
#       182
#       12545
#       26900
#       40017
#       52657
#       65430
#       79375
#       93310
#       106145
#       120060
#       132445
#       144057
#       157245
#       168237
#       181605
#       194517
# 
# Disc length: 2712 seconds
# 
# Revision: 1
# Processed by: cddbd v1.5.1PL0 Copyright (c) Steve Scherf et al.
# Submitted via: Grip 3.3.0
# 
DISCID=c70a9610
DTITLE=Little Walter - Blues With A Feeling
DYEAR=1992
DGENRE=Blues
TTITLE0=Juke
TTITLE1=Sad Hours
TTITLE2=Mean Old World
TTITLE3=Tell Me Mama
TTITLE4=Off The Wall
TTITLE5=Blues With A Feeling
TTITLE6=You're So Fine
TTITLE7=Oh Baby
TTITLE8=You'd Better Watch Yourself
TTITLE9=Last Night
TTITLE10=My Babe
TTITLE11=Roller Coaster
TTITLE12=Who
TTITLE13=Key To The Highway
TTITLE14=Everything's Going To Be Alright
TTITLE15=Crazy Mixed Up World
EXTD=Charly Blues Masterworks Vol.23
EXTT0=
EXTT1=
EXTT2=
EXTT3=
EXTT4=
EXTT5=
EXTT6=
EXTT7=
EXTT8=
EXTT9=
EXTT10=
EXTT11=
EXTT12=
EXTT13=
EXTT14=
EXTT15=
PLAYORDER=
